<?xml version="1.0" encoding="utf-8"?>
<!-- Generator: Adobe Illustrator 22.0.1, SVG Export Plug-In . SVG Version: 6.00 Build 0)  -->
<svg version="1.1" id="Layer_1" xmlns="http://www.w3.org/2000/svg" xmlns:xlink="http://www.w3.org/1999/xlink" x="0px" y="0px"
	 viewBox="0 0 1000 1000" style="enable-background:new 0 0 1000 1000;" xml:space="preserve">
<style type="text/css">
	.st0{fill:#666666;}
</style>
<g>
	<path class="st0" d="M10,500c0,270.6,219.4,490,490,490s490-219.4,490-490c0-270.7-219.4-490-490-490S10,229.3,10,500z M71.3,500
		c0-236.8,192-428.8,428.8-428.8c236.9,0,428.8,192,428.8,428.8c0,236.7-191.9,428.8-428.8,428.8C263.3,928.8,71.3,736.7,71.3,500z"
		/>
	<path class="st0" d="M211,454.1h490V546H211V454.1z"/>
	<path class="st0" d="M452.2,285.6h122.5l214.4,219L574.7,714.4H452.2l214.4-209.8L452.2,285.6z"/>
</g>
</svg>
